# xmcd
#
# Track frame offsets:
#	150
#	18225
#	39675
#	62625
#	77025
#	94425
#
# Disc length: 1520 seconds
#
# Revision: 0
# Processed by: cddbd v1.5.2PL0 Copyright (c) Steve Scherf et al.
# Submitted via: EZCDAudioConverter 4.0.5.1
#
DISCID=4605ee06
DTITLE=Richo Richardson - Troubled Man
DYEAR=2016
DGENRE=
TTITLE0=Took So Long
TTITLE1=Bring Me Home
TTITLE2=Troubled Man
TTITLE3=Round the World
TTITLE4=Love is a Vandal
TTITLE5=Troubled Man (radio edit)
EXTD=
EXTT0=
EXTT1=
EXTT2=
EXTT3=
EXTT4=
EXTT5=
PLAYORDER=
